HIERARCHY
ROOT root
{
	OFFSET 0.000000 0.000000 0.000000
	CHANNELS 6 Xposition Yposition Zposition Zrotation Yrotation Xrotation
	JOINT lhip
	{
		OFFSET 0.058581 -0.082280 -0.017664
		CHANNELS 3 Zrotation Yrotation Xrotation
		JOINT lknee
		{
			OFFSET 0.043451 -0.386469 0.008037
			CHANNELS 3 Zrotation Yrotation Xrotation
			JOINT lankle
			{
				OFFSET -0.014790 -0.426874 -0.037428
				CHANNELS 3 Zrotation Yrotation Xrotation
				JOINT ltoe
				{
					OFFSET 0.041054 -0.060286 0.122042
					CHANNELS 3 Zrotation Yrotation Xrotation
					End Site
					{
						OFFSET 0.000000 0.000000 0.000000
					}
				}
			}
		}
	}
	JOINT rhip
	{
		OFFSET -0.060310 -0.090513 -0.013543
		CHANNELS 3 Zrotation Yrotation Xrotation
		JOINT rknee
		{
			OFFSET -0.043257 -0.383688 -0.004843
			CHANNELS 3 Zrotation Yrotation Xrotation
			JOINT rankle
			{
				OFFSET 0.019056 -0.420046 -0.034562
				CHANNELS 3 Zrotation Yrotation Xrotation
				JOINT rtoe
				{
					OFFSET -0.034840 -0.062106 0.130323
					CHANNELS 3 Zrotation Yrotation Xrotation
					End Site
					{
						OFFSET 0.000000 0.000000 0.000000
					}
				}
			}
		}
	}
	JOINT lowerback
	{
		OFFSET 0.004439 0.124404 -0.038385
		CHANNELS 3 Zrotation Yrotation Xrotation
		JOINT upperback
		{
			OFFSET 0.004488 0.137956 0.026820
			CHANNELS 3 Zrotation Yrotation Xrotation
			JOINT chest
			{
				OFFSET -0.002265 0.056032 0.002855
				CHANNELS 3 Zrotation Yrotation Xrotation
				JOINT lowerneck
				{
					OFFSET -0.013390 0.211636 -0.033468
					CHANNELS 3 Zrotation Yrotation Xrotation
					JOINT upperneck
					{
						OFFSET 0.010113 0.088937 0.050410
						CHANNELS 3 Zrotation Yrotation Xrotation
						End Site
						{
							OFFSET 0.000000 0.000000 0.000000
						}
					}
				}
				JOINT lclavicle
				{
					OFFSET 0.071702 0.114000 -0.018898
					CHANNELS 3 Zrotation Yrotation Xrotation
					JOINT lshoulder
					{
						OFFSET 0.122921 0.045205 -0.019046
						CHANNELS 3 Zrotation Yrotation Xrotation
						JOINT lelbow
						{
							OFFSET 0.255332 -0.015649 -0.022946
							CHANNELS 3 Zrotation Yrotation Xrotation
							JOINT lwrist
							{
								OFFSET 0.265709 0.012698 -0.007375
								CHANNELS 3 Zrotation Yrotation Xrotation
								End Site
								{
									OFFSET 0.000000 0.000000 0.000000
								}
							}
						}
					}
				}
				JOINT rclavicle
				{
					OFFSET -0.082954 0.112472 -0.023707
					CHANNELS 3 Zrotation Yrotation Xrotation
					JOINT rshoulder
					{
						OFFSET -0.113228 0.046853 -0.008472
						CHANNELS 3 Zrotation Yrotation Xrotation
						JOINT relbow
						{
							OFFSET -0.260127 -0.014369 -0.031269
							CHANNELS 3 Zrotation Yrotation Xrotation
							JOINT rwrist
							{
								OFFSET -0.269108 0.006794 -0.006027
								CHANNELS 3 Zrotation Yrotation Xrotation
								End Site
								{
									OFFSET 0.000000 0.000000 0.000000
								}
							}
						}
					}
				}
			}
		}
	}
}
MOTION
Frames: 10
Frame Time: 0.033333
-0.005080 -0.204150 0.967677 -177.362939 -0.766957 90.776963 9.413112 3.759161 -12.823332 -6.842099 -3.789521 15.071230 0.196328 4.213848 -7.464626 0.000000 -0.000000 0.000000 -12.831111 -8.841228 -13.592475 0.279189 -1.645010 17.158398 6.293766 -3.286241 -4.426027 0.000000 -0.000000 0.000000 0.784285 3.430294 17.763761 1.658954 -4.490255 4.769171 2.332110 0.315361 -0.658471 -3.589046 3.848196 10.781143 6.644496 4.472009 20.375820 -25.931857 -30.722505 6.639146 -72.210803 -27.471258 24.674347 4.896227 -14.324397 -8.178986 47.040790 20.028221 -20.198379 28.712759 28.153586 12.931398 59.252419 34.019223 12.546518 -8.994098 6.704375 -18.177476 1.357155 -0.254596 -24.120625 
-0.005069 -0.203871 0.967645 -177.319698 -0.800327 90.739465 9.370115 3.741952 -12.797195 -6.769331 -3.619813 15.122293 0.354478 4.026133 -7.608449 0.000000 -0.000000 0.000000 -12.900052 -8.742266 -13.493658 0.249932 -1.748407 17.116959 6.132639 -3.209649 -4.540273 0.000000 -0.000000 0.000000 0.695508 3.391843 17.764120 1.606884 -4.612605 4.789331 2.388803 0.320257 -0.571791 -3.628168 3.839700 10.641496 6.696120 4.491410 20.533010 -25.968286 -30.887774 6.810462 -72.215202 -27.533870 24.503794 5.025576 -14.283121 -8.457638 47.116190 19.549420 -19.888359 28.893906 28.296732 12.944962 58.993219 33.908007 12.371897 -8.983887 6.724861 -18.371656 1.528928 -0.328437 -23.764098 
-0.004998 -0.203563 0.967498 -177.307224 -0.792756 90.710146 9.388256 3.807716 -12.774929 -6.756900 -3.578603 15.130040 0.354961 3.911143 -7.623528 0.000000 -0.000000 0.000000 -12.906821 -8.787383 -13.477853 0.273672 -1.887999 17.154195 6.041524 -3.126737 -4.518713 0.000000 -0.000000 0.000000 0.714943 3.321319 17.785320 1.557570 -4.667396 4.857508 2.341354 0.321176 -0.607029 -3.630591 3.900112 10.591382 6.666821 4.518376 20.668163 -26.083132 -30.823336 6.926965 -72.208282 -27.745740 24.356881 5.091731 -13.991065 -8.717976 47.201816 19.244458 -19.660141 28.991394 28.337247 12.979118 58.962600 33.958579 12.261759 -9.076051 6.406443 -18.510156 1.879330 0.620438 -24.737151 
-0.004874 -0.203351 0.967441 -177.282926 -0.831073 90.759708 9.368220 3.757175 -12.796045 -6.778022 -3.592911 15.099262 0.275731 3.928361 -7.598156 0.000000 -0.000000 0.000000 -12.955533 -8.710849 -13.479277 0.268554 -1.949179 17.113522 6.043315 -3.141510 -4.539421 0.000000 -0.000000 0.000000 0.640236 3.368092 17.702102 1.606266 -4.661581 4.864771 2.361242 0.274426 -0.540102 -3.621779 4.006615 10.521692 6.565339 4.373659 20.803949 -26.067462 -30.891780 6.981386 -72.276737 -27.657543 24.575941 5.119232 -14.346098 -8.153017 46.569951 19.124893 -20.012426 29.102703 28.335714 13.174731 58.795425 34.038748 12.218566 -9.191241 6.441891 -18.266130 2.057203 0.346957 -24.432634 
-0.004846 -0.203174 0.967435 -177.260874 -0.862063 90.798943 9.338753 3.769557 -12.830775 -6.788052 -3.497375 15.059075 0.303322 3.956547 -7.551777 0.000000 -0.000000 0.000000 -12.976919 -8.714195 -13.526609 0.232897 -1.994333 17.161103 6.032360 -3.125262 -4.538041 0.000000 -0.000000 0.000000 0.633756 3.351045 17.667332 1.589067 -4.688834 4.859338 2.323732 0.289446 -0.536414 -3.584614 4.131874 10.573164 6.553025 4.401779 20.871198 -26.046713 -30.899940 6.973768 -72.331806 -27.605349 24.657587 5.117665 -14.317548 -7.911589 46.104635 19.043834 -20.105275 29.211311 28.302495 13.258379 58.760167 34.055353 12.200376 -9.249501 6.436315 -18.145115 2.163422 0.314666 -24.319078 
-0.004702 -0.202872 0.967391 -177.204458 -0.860601 90.763188 9.351805 3.770145 -12.794177 -6.781327 -3.561447 15.071385 0.300558 3.912609 -7.555546 0.000000 -0.000000 0.000000 -13.038704 -8.727960 -13.439772 0.334466 -1.975466 17.149046 6.065159 -3.104845 -4.565367 0.000000 -0.000000 0.000000 0.659323 3.339117 17.732144 1.590622 -4.703587 4.870166 2.321342 0.236029 -0.563725 -3.605779 4.128426 10.541076 6.434511 4.397519 20.941404 -26.056890 -30.898863 6.968023 -72.338393 -27.575018 24.709596 5.108760 -14.269755 -7.802595 45.779062 18.998023 -20.029173 29.283077 28.289898 13.249767 58.683268 33.995704 12.208831 -9.159132 6.420187 -18.093356 2.232566 0.578714 -24.440961 
-0.004547 -0.202476 0.967373 -177.175709 -0.916849 90.747797 9.308319 3.741871 -12.779119 -6.796175 -3.574397 15.130213 0.274472 3.888496 -7.559528 0.000000 -0.000000 0.000000 -13.119082 -8.729000 -13.416125 0.370545 -2.059384 17.189269 6.058084 -3.120393 -4.601170 0.000000 -0.000000 0.000000 0.636250 3.398242 17.795024 1.578985 -4.690138 4.849944 2.307359 0.161287 -0.567741 -3.637522 4.177811 10.550837 6.359617 4.409320 20.861065 -26.112429 -30.876335 6.978612 -72.292097 -27.607835 24.612205 5.021758 -14.014000 -8.004369 45.204946 18.959167 -20.257918 29.307722 28.189528 13.117091 58.816016 33.860981 12.282222 -9.227185 6.529861 -18.334683 2.335307 0.427626 -24.172074 
-0.004407 -0.202013 0.967260 -177.142276 -0.884396 90.791879 9.334129 3.771567 -12.845023 -6.788815 -3.633149 15.228787 0.289720 3.897126 -7.656729 0.000000 -0.000000 0.000000 -13.068868 -8.715716 -13.432869 0.349752 -2.103213 17.226336 6.011210 -3.169298 -4.653852 0.000000 -0.000000 0.000000 0.646565 3.376426 17.812094 1.639897 -4.676966 4.700839 2.319490 0.150207 -0.528579 -3.739204 4.268270 10.647648 6.348214 4.365066 20.848785 -26.137992 -30.842819 7.024691 -72.337849 -27.507859 24.608710 5.069896 -14.024914 -7.763104 44.707117 19.181110 -20.381541 29.376071 28.115386 13.114938 58.874390 33.762334 12.268419 -9.249019 6.562765 -18.356605 2.274528 0.209990 -23.922305 
-0.004049 -0.201486 0.967249 -177.176816 -0.813774 90.780133 9.476171 3.857192 -12.817949 -6.857368 -3.647079 15.294093 0.309079 3.835138 -7.695579 0.000000 -0.000000 0.000000 -12.971805 -8.748098 -13.449079 0.395482 -2.031088 17.322648 6.022682 -3.174477 -4.680143 0.000000 -0.000000 0.000000 0.662796 3.433303 17.804276 1.693133 -4.596021 4.722486 2.348645 0.117488 -0.509268 -3.764320 4.230431 10.714543 6.356066 4.331566 20.816469 -26.227261 -30.827017 7.086792 -72.320765 -27.499736 24.606577 5.115255 -14.012371 -7.690066 44.786617 19.193019 -20.194781 29.409396 28.060105 13.057196 58.920535 33.678092 12.278737 -9.273651 6.602402 -18.446396 2.153512 0.175883 -23.942912 
-0.003944 -0.200991 0.967206 -177.192926 -0.819362 90.745193 9.484751 3.843649 -12.757515 -6.865483 -3.605875 15.297999 0.298137 3.886249 -7.697042 0.000000 -0.000000 0.000000 -12.974693 -8.739781 -13.417882 0.394132 -2.007024 17.386550 5.976630 -3.186007 -4.738583 0.000000 -0.000000 0.000000 0.654391 3.466749 17.779817 1.727152 -4.597286 4.848851 2.353482 0.142685 -0.486165 -3.742192 4.287338 10.677740 6.274003 4.265544 20.819189 -26.181408 -30.860648 7.063969 -72.323906 -27.479783 24.617685 5.119817 -14.069340 -7.616140 44.635451 19.182973 -20.256853 29.422421 28.098235 13.124824 58.945055 33.687552 12.272680 -9.367071 6.674096 -18.523831 1.887987 0.059996 -23.873037 
